STARTFONT 2.1
COMMENT AUTOMATICALLY GENERATED FILE. DO NOT EDIT!
COMMENT Generated with 'ucs2any.pl ncenBI12.bdf ../../../fonts/util/map-ISO8859-1 ISO8859-1'
COMMENT from an ISO10646-1 encoded source BDF font.
COMMENT ucs2any.pl by Markus Kuhn <mkuhn@acm.org>, 2000.
FONT -Adobe-New Century Schoolbook-Bold-I-Normal--12-120-75-75-P-76-ISO8859-1
SIZE 12 75 75
FONTBOUNDINGBOX 16 15 -3 -3
COMMENT $Xorg: $
COMMENT ISO10646-1 extension by Markus Kuhn <mkuhn@acm.org>, 2001-03-20
COMMENT 
COMMENT +
COMMENT  Copyright 1984-1989, 1994 Adobe Systems Incorporated.
COMMENT  Copyright 1988, 1994 Digital Equipment Corporation.
COMMENT
COMMENT  Adobe is a trademark of Adobe Systems Incorporated which may be
COMMENT  registered in certain jurisdictions.
COMMENT  Permission to use these trademarks is hereby granted only in
COMMENT  association with the images described in this file.
COMMENT
COMMENT  Permission to use, copy, modify, distribute and sell this software
COMMENT  and its documentation for any purpose and without fee is hereby
COMMENT  granted, provided that the above copyright notices appear in all
COMMENT  copies and that both those copyright notices and this permission
COMMENT  notice appear in supporting documentation, and that the names of
COMMENT  Adobe Systems and Digital Equipment Corporation not be used in
COMMENT  advertising or publicity pertaining to distribution of the software
COMMENT  without specific, written prior permission.  Adobe Systems and
COMMENT  Digital Equipment Corporation make no representations about the
COMMENT  suitability of this software for any purpose.  It is provided "as
COMMENT  is" without express or implied warranty.
COMMENT -
STARTPROPERTIES 26
FOUNDRY "Adobe"
FAMILY_NAME "New Century Schoolbook"
WEIGHT_NAME "Bold"
SLANT "I"
SETWIDTH_NAME "Normal"
ADD_STYLE_NAME ""
PIXEL_SIZE 12
POINT_SIZE 120
RESOLUTION_X 75
RESOLUTION_Y 75
SPACING "P"
AVERAGE_WIDTH 76
CHARSET_REGISTRY "ISO8859"
CHARSET_ENCODING "1"
CAP_HEIGHT 9
X_HEIGHT 6

STARTCHAR defaultchar
ENCODING 0
SWIDTH 870 0
DWIDTH 11 0
BBX 9 9 0 0
BITMAP
AA80
0000
8080
0000
8080
0000
8080
0000
AA80
ENDCHAR
STARTCHAR space
ENCODING 32
SWIDTH 287 0
DWIDTH 4 0
BBX 1 1 0 0
BITMAP
00
ENDCHAR
STARTCHAR exclam
ENCODING 33
SWIDTH 333 0
DWIDTH 5 0
BBX 4 9 0 0
BITMAP
30
30
30
60
60
40
00
C0
C0
ENDCHAR
STARTCHAR quotedbl
ENCODING 34
SWIDTH 400 0
DWIDTH 6 0
BBX 3 3 1 6
BITMAP
A0
A0
A0
ENDCHAR
STARTCHAR numbersign
ENCODING 35
SWIDTH 606 0
DWIDTH 8 0
BBX 7 8 0 0
BITMAP
14
14
7E
28
28
FC
50
50
ENDCHAR
STARTCHAR dollar
ENCODING 36
SWIDTH 574 0
DWIDTH 7 0
BBX 6 11 0 -1
BITMAP
08
3C
74
50
70
30
38
28
B8
F0
40
ENDCHAR
STARTCHAR percent
ENCODING 37
SWIDTH 889 0
DWIDTH 12 0
BBX 11 9 0 0
BITMAP
3300
6D00
CA00
D200
64C0
05A0
0B20
0B40
1180
ENDCHAR
STARTCHAR ampersand
ENCODING 38
SWIDTH 889 0
DWIDTH 12 0
BBX 11 9 0 0
BITMAP
0E00
1900
1900
1E00
6CE0
CC40
C680
C720
7BC0
ENDCHAR
STARTCHAR quotesingle
ENCODING 39
SWIDTH 287 0
DWIDTH 4 0
BBX 2 4 1 5
BITMAP
C0
C0
C0
80
ENDCHAR
STARTCHAR parenleft
ENCODING 40
SWIDTH 407 0
DWIDTH 5 0
BBX 4 11 0 -2
BITMAP
10
20
60
60
C0
C0
C0
C0
C0
40
20
ENDCHAR
STARTCHAR parenright
ENCODING 41
SWIDTH 407 0
DWIDTH 5 0
BBX 4 11 0 -2
BITMAP
40
20
30
30
30
30
30
60
60
40
80
ENDCHAR
STARTCHAR asterisk
ENCODING 42
SWIDTH 500 0
DWIDTH 6 0
BBX 5 5 0 4
BITMAP
20
A8
70
A8
20
ENDCHAR
STARTCHAR plus
ENCODING 43
SWIDTH 606 0
DWIDTH 8 0
BBX 7 7 0 0
BITMAP
10
10
10
FE
10
10
10
ENDCHAR
STARTCHAR comma
ENCODING 44
SWIDTH 287 0
DWIDTH 3 0
BBX 2 4 0 -2
BITMAP
C0
C0
40
80
ENDCHAR
STARTCHAR hyphen
ENCODING 45
SWIDTH 333 0
DWIDTH 4 0
BBX 3 2 0 2
BITMAP
E0
E0
ENDCHAR
STARTCHAR period
ENCODING 46
SWIDTH 287 0
DWIDTH 3 0
BBX 2 2 0 0
BITMAP
C0
C0
ENDCHAR
STARTCHAR slash
ENCODING 47
SWIDTH 278 0
DWIDTH 6 0
BBX 5 9 0 0
BITMAP
08
18
10
30
20
60
40
C0
80
ENDCHAR
STARTCHAR zero
ENCODING 48
SWIDTH 574 0
DWIDTH 7 0
BBX 6 9 0 0
BITMAP
38
6C
6C
CC
CC
CC
D8
D8
70
ENDCHAR
STARTCHAR one
ENCODING 49
SWIDTH 574 0
DWIDTH 7 0
BBX 4 9 1 0
BITMAP
30
F0
30
30
60
60
60
60
F0
ENDCHAR
STARTCHAR two
ENCODING 50
SWIDTH 574 0
DWIDTH 7 0
BBX 6 9 0 0
BITMAP
38
6C
6C
0C
18
20
44
FC
F8
ENDCHAR
STARTCHAR three
ENCODING 51
SWIDTH 574 0
DWIDTH 7 0
BBX 6 9 0 0
BITMAP
38
6C
0C
38
0C
0C
CC
C8
70
ENDCHAR
STARTCHAR four
ENCODING 52
SWIDTH 574 0
DWIDTH 7 0
BBX 6 9 0 0
BITMAP
0C
1C
2C
2C
58
98
FC
18
3C
ENDCHAR
STARTCHAR five
ENCODING 53
SWIDTH 574 0
DWIDTH 7 0
BBX 6 9 0 0
BITMAP
3C
38
40
78
0C
0C
CC
C8
70
ENDCHAR
STARTCHAR six
ENCODING 54
SWIDTH 574 0
DWIDTH 7 0
BBX 6 9 0 0
BITMAP
18
6C
60
D8
EC
CC
CC
D8
70
ENDCHAR
STARTCHAR seven
ENCODING 55
SWIDTH 574 0
DWIDTH 7 0
BBX 6 9 0 0
BITMAP
7C
FC
88
10
10
20
20
60
60
ENDCHAR
STARTCHAR eight
ENCODING 56
SWIDTH 574 0
DWIDTH 7 0
BBX 6 9 0 0
BITMAP
38
64
64
38
78
D8
88
98
70
ENDCHAR
STARTCHAR nine
ENCODING 57
SWIDTH 574 0
DWIDTH 7 0
BBX 6 9 0 0
BITMAP
38
6C
CC
CC
DC
6C
18
D8
60
ENDCHAR
STARTCHAR colon
ENCODING 58
SWIDTH 287 0
DWIDTH 4 0
BBX 3 6 0 0
BITMAP
60
60
00
00
C0
C0
ENDCHAR
STARTCHAR semicolon
ENCODING 59
SWIDTH 287 0
DWIDTH 4 0
BBX 3 8 0 -2
BITMAP
60
60
00
00
C0
C0
40
80
ENDCHAR
STARTCHAR less
ENCODING 60
SWIDTH 606 0
DWIDTH 7 0
BBX 6 7 0 0
BITMAP
04
1C
70
C0
70
1C
04
ENDCHAR
STARTCHAR equal
ENCODING 61
SWIDTH 606 0
DWIDTH 7 0
BBX 6 3 0 2
BITMAP
FC
00
FC
ENDCHAR
STARTCHAR greater
ENCODING 62
SWIDTH 606 0
DWIDTH 7 0
BBX 6 7 0 0
BITMAP
80
E0
38
0C
38
E0
80
ENDCHAR
STARTCHAR question
ENCODING 63
SWIDTH 481 0
DWIDTH 6 0
BBX 5 9 0 0
BITMAP
70
98
18
30
40
60
00
C0
C0
ENDCHAR
STARTCHAR at
ENCODING 64
SWIDTH 747 0
DWIDTH 11 0
BBX 10 9 0 0
BITMAP
1F00
2080
4D40
9340
B240
B680
9B00
4080
3F00
ENDCHAR
STARTCHAR A
ENCODING 65
SWIDTH 741 0
DWIDTH 10 0
BBX 10 9 -1 0
BITMAP
0600
0600
0E00
0B00
1300
1F00
2180
6180
F3C0
ENDCHAR
STARTCHAR B
ENCODING 66
SWIDTH 759 0
DWIDTH 9 0
BBX 8 9 0 0
BITMAP
7E
33
33
32
7C
63
63
67
FC
ENDCHAR
STARTCHAR C
ENCODING 67
SWIDTH 759 0
DWIDTH 9 0
BBX 8 9 0 0
BITMAP
1D
63
61
C0
C0
C0
C1
63
3C
ENDCHAR
STARTCHAR D
ENCODING 68
SWIDTH 833 0
DWIDTH 10 0
BBX 9 9 0 0
BITMAP
7E00
3100
3180
3180
6180
6180
6300
6300
FC00
ENDCHAR
STARTCHAR E
ENCODING 69
SWIDTH 741 0
DWIDTH 9 0
BBX 8 9 0 0
BITMAP
7F
31
31
34
7C
64
62
62
FE
ENDCHAR
STARTCHAR F
ENCODING 70
SWIDTH 704 0
DWIDTH 8 0
BBX 8 9 0 0
BITMAP
7F
31
31
34
7C
64
60
60
F0
ENDCHAR
STARTCHAR G
ENCODING 71
SWIDTH 815 0
DWIDTH 10 0
BBX 9 9 0 0
BITMAP
1D00
6300
6100
C000
C000
C780
C300
6700
3D00
ENDCHAR
STARTCHAR H
ENCODING 72
SWIDTH 870 0
DWIDTH 11 0
BBX 10 9 0 0
BITMAP
7BC0
3180
3180
3180
7F00
6300
6300
6300
F780
ENDCHAR
STARTCHAR I
ENCODING 73
SWIDTH 444 0
DWIDTH 6 0
BBX 5 9 0 0
BITMAP
78
30
30
30
60
60
60
60
F0
ENDCHAR
STARTCHAR J
ENCODING 74
SWIDTH 667 0
DWIDTH 8 0
BBX 8 9 -1 0
BITMAP
0F
06
06
06
0C
0C
CC
CC
70
ENDCHAR
STARTCHAR K
ENCODING 75
SWIDTH 778 0
DWIDTH 10 0
BBX 9 9 0 0
BITMAP
7B80
3100
3200
3400
7C00
6600
6600
6300
F380
ENDCHAR
STARTCHAR L
ENCODING 76
SWIDTH 704 0
DWIDTH 9 0
BBX 8 9 0 0
BITMAP
78
30
30
30
60
60
61
61
FF
ENDCHAR
STARTCHAR M
ENCODING 77
SWIDTH 944 0
DWIDTH 14 0
BBX 13 9 0 0
BITMAP
7878
3870
38B0
2CB0
2D30
6D60
4660
4660
E670
ENDCHAR
STARTCHAR N
ENCODING 78
SWIDTH 852 0
DWIDTH 11 0
BBX 10 9 0 0
BITMAP
71C0
3080
3880
3880
6D00
4D00
4700
4700
E300
ENDCHAR
STARTCHAR O
ENCODING 79
SWIDTH 833 0
DWIDTH 10 0
BBX 9 9 0 0
BITMAP
1E00
6300
6180
C180
C180
C180
C300
6300
3C00
ENDCHAR
STARTCHAR P
ENCODING 80
SWIDTH 741 0
DWIDTH 9 0
BBX 9 9 0 0
BITMAP
7F00
3180
3180
3300
7C00
6000
6000
6000
F000
ENDCHAR
STARTCHAR Q
ENCODING 81
SWIDTH 833 0
DWIDTH 10 0
BBX 9 11 0 -2
BITMAP
1E00
6300
6180
C180
C180
D980
E700
6700
3E00
0780
0300
ENDCHAR
STARTCHAR R
ENCODING 82
SWIDTH 796 0
DWIDTH 10 0
BBX 9 9 0 0
BITMAP
7F00
3180
3180
3300
7C00
6600
6600
6380
F300
ENDCHAR
STARTCHAR S
ENCODING 83
SWIDTH 685 0
DWIDTH 8 0
BBX 7 9 0 0
BITMAP
3A
66
42
70
3C
0C
84
CC
B8
ENDCHAR
STARTCHAR T
ENCODING 84
SWIDTH 722 0
DWIDTH 9 0
BBX 8 9 0 0
BITMAP
FF
99
99
18
30
30
30
30
78
ENDCHAR
STARTCHAR U
ENCODING 85
SWIDTH 833 0
DWIDTH 9 0
BBX 9 9 0 0
BITMAP
F380
6100
6100
6100
C200
C200
C200
E600
7C00
ENDCHAR
STARTCHAR V
ENCODING 86
SWIDTH 741 0
DWIDTH 10 0
BBX 10 9 0 0
BITMAP
F3C0
6180
6100
3200
3200
3400
1C00
1800
1800
ENDCHAR
STARTCHAR W
ENCODING 87
SWIDTH 944 0
DWIDTH 13 0
BBX 13 9 0 0
BITMAP
F7B8
6310
6720
6720
6B40
39C0
39C0
3180
3180
ENDCHAR
STARTCHAR X
ENCODING 88
SWIDTH 741 0
DWIDTH 11 0
BBX 11 9 -1 0
BITMAP
3DE0
18C0
0D80
0D00
0E00
1B00
3300
6180
F3C0
ENDCHAR
STARTCHAR Y
ENCODING 89
SWIDTH 704 0
DWIDTH 9 0
BBX 9 9 0 0
BITMAP
F780
6300
6600
3400
3800
1800
3000
3000
7800
ENDCHAR
STARTCHAR Z
ENCODING 90
SWIDTH 704 0
DWIDTH 9 0
BBX 8 9 0 0
BITMAP
7F
47
4E
1C
18
30
72
E2
FE
ENDCHAR
STARTCHAR bracketleft
ENCODING 91
SWIDTH 407 0
DWIDTH 6 0
BBX 5 11 0 -2
BITMAP
38
30
30
60
60
60
60
C0
C0
C0
E0
ENDCHAR
STARTCHAR backslash
ENCODING 92
SWIDTH 606 0
DWIDTH 6 0
BBX 5 9 0 0
BITMAP
80
C0
40
60
20
30
10
18
08
ENDCHAR
STARTCHAR bracketright
ENCODING 93
SWIDTH 407 0
DWIDTH 6 0
BBX 5 11 0 -2
BITMAP
38
18
18
30
30
30
30
60
60
60
E0
ENDCHAR
STARTCHAR asciicircum
ENCODING 94
SWIDTH 606 0
DWIDTH 8 0
BBX 7 6 0 3
BITMAP
10
38
28
6C
44
C6
ENDCHAR
STARTCHAR underscore
ENCODING 95
SWIDTH 500 0
DWIDTH 6 0
BBX 6 1 0 -2
BITMAP
FC
ENDCHAR
STARTCHAR grave
ENCODING 96
SWIDTH 333 0
DWIDTH 4 0
BBX 3 2 0 7
BITMAP
C0
60
ENDCHAR
STARTCHAR a
ENCODING 97
SWIDTH 667 0
DWIDTH 8 0
BBX 8 6 0 0
BITMAP
36
4E
C6
CC
DD
6E
ENDCHAR
STARTCHAR b
ENCODING 98
SWIDTH 611 0
DWIDTH 7 0
BBX 6 9 0 0
BITMAP
70
30
60
78
6C
CC
CC
C8
70
ENDCHAR
STARTCHAR c
ENCODING 99
SWIDTH 537 0
DWIDTH 6 0
BBX 6 6 0 0
BITMAP
38
4C
C0
C0
C8
70
ENDCHAR
STARTCHAR d
ENCODING 100
SWIDTH 667 0
DWIDTH 8 0
BBX 8 9 0 0
BITMAP
07
03
03
36
4E
C6
CC
DD
6E
ENDCHAR
STARTCHAR e
ENCODING 101
SWIDTH 519 0
DWIDTH 7 0
BBX 6 6 0 0
BITMAP
38
4C
CC
F0
C8
70
ENDCHAR
STARTCHAR f
ENCODING 102
SWIDTH 389 0
DWIDTH 5 0
BBX 7 12 0 -3
BITMAP
1C
36
30
F8
60
60
60
C0
C0
C0
C0
80
ENDCHAR
STARTCHAR g
ENCODING 103
SWIDTH 611 0
DWIDTH 7 0
BBX 9 11 -2 -3
BITMAP
0080
0180
1E00
3300
3300
1E00
2000
3C00
7E00
8600
7C00
ENDCHAR
STARTCHAR h
ENCODING 104
SWIDTH 685 0
DWIDTH 8 0
BBX 8 9 0 0
BITMAP
70
30
60
6C
76
66
CC
CD
CE
ENDCHAR
STARTCHAR i
ENCODING 105
SWIDTH 389 0
DWIDTH 4 0
BBX 4 9 0 0
BITMAP
30
30
00
E0
60
60
C0
D0
E0
ENDCHAR
STARTCHAR j
ENCODING 106
SWIDTH 370 0
DWIDTH 4 0
BBX 7 12 -3 -3
BITMAP
06
06
00
1C
0C
0C
18
18
18
18
D0
E0
ENDCHAR
STARTCHAR k
ENCODING 107
SWIDTH 648 0
DWIDTH 8 0
BBX 7 9 0 0
BITMAP
70
30
30
6E
76
6C
F0
DA
CC
ENDCHAR
STARTCHAR l
ENCODING 108
SWIDTH 389 0
DWIDTH 4 0
BBX 4 9 0 0
BITMAP
70
30
30
60
60
60
C0
D0
E0
ENDCHAR
STARTCHAR m
ENCODING 109
SWIDTH 944 0
DWIDTH 12 0
BBX 12 6 0 0
BITMAP
ECC0
7760
6660
CCC0
CCD0
CCE0
ENDCHAR
STARTCHAR n
ENCODING 110
SWIDTH 685 0
DWIDTH 8 0
BBX 8 6 0 0
BITMAP
EC
76
66
CC
CD
CE
ENDCHAR
STARTCHAR o
ENCODING 111
SWIDTH 574 0
DWIDTH 7 0
BBX 6 6 0 0
BITMAP
38
4C
CC
CC
C8
70
ENDCHAR
STARTCHAR p
ENCODING 112
SWIDTH 648 0
DWIDTH 8 0
BBX 9 9 -2 -3
BITMAP
3B00
1D80
1980
3180
3300
3E00
6000
6000
F000
ENDCHAR
STARTCHAR q
ENCODING 113
SWIDTH 630 0
DWIDTH 8 0
BBX 7 9 0 -3
BITMAP
36
6E
C6
CC
CC
7C
18
18
3C
ENDCHAR
STARTCHAR r
ENCODING 114
SWIDTH 519 0
DWIDTH 6 0
BBX 6 6 0 0
BITMAP
EC
74
60
C0
C0
C0
ENDCHAR
STARTCHAR s
ENCODING 115
SWIDTH 481 0
DWIDTH 7 0
BBX 6 6 0 0
BITMAP
3C
64
70
38
98
F0
ENDCHAR
STARTCHAR t
ENCODING 116
SWIDTH 407 0
DWIDTH 5 0
BBX 5 8 0 0
BITMAP
30
30
F8
60
60
C0
D0
E0
ENDCHAR
STARTCHAR u
ENCODING 117
SWIDTH 685 0
DWIDTH 8 0
BBX 8 6 0 0
BITMAP
E6
66
66
CC
DD
6E
ENDCHAR
STARTCHAR v
ENCODING 118
SWIDTH 556 0
DWIDTH 7 0
BBX 6 6 0 0
BITMAP
EC
64
64
C8
C8
70
ENDCHAR
STARTCHAR w
ENCODING 119
SWIDTH 833 0
DWIDTH 11 0
BBX 10 6 0 0
BITMAP
E6C0
6640
6640
CC80
CC80
7700
ENDCHAR
STARTCHAR x
ENCODING 120
SWIDTH 574 0
DWIDTH 7 0
BBX 8 6 -1 0
BITMAP
33
76
18
18
6E
CC
ENDCHAR
STARTCHAR y
ENCODING 121
SWIDTH 519 0
DWIDTH 6 0
BBX 7 9 -1 -3
BITMAP
66
62
34
34
18
18
10
E0
C0
ENDCHAR
STARTCHAR z
ENCODING 122
SWIDTH 519 0
DWIDTH 7 0
BBX 6 6 0 0
BITMAP
74
BC
18
60
F4
B8
ENDCHAR
STARTCHAR braceleft
ENCODING 123
SWIDTH 407 0
DWIDTH 6 0
BBX 5 11 0 -2
BITMAP
18
30
30
30
20
C0
60
60
60
60
30
ENDCHAR
STARTCHAR bar
ENCODING 124
SWIDTH 606 0
DWIDTH 8 0
BBX 1 9 3 0
BITMAP
80
80
80
80
80
80
80
80
80
ENDCHAR
STARTCHAR braceright
ENCODING 125
SWIDTH 407 0
DWIDTH 6 0
BBX 5 11 0 -2
BITMAP
60
30
30
30
30
18
20
60
60
60
C0
ENDCHAR
STARTCHAR asciitilde
ENCODING 126
SWIDTH 606 0
DWIDTH 8 0
BBX 7 2 0 3
BITMAP
76
DC
ENDCHAR
STARTCHAR space
ENCODING 160
SWIDTH 287 0
DWIDTH 4 0
BBX 1 1 0 0
BITMAP
00
ENDCHAR
STARTCHAR exclamdown
ENCODING 161
SWIDTH 333 0
DWIDTH 5 0
BBX 4 9 0 -3
BITMAP
30
30
00
20
60
60
C0
C0
C0
ENDCHAR
STARTCHAR cent
ENCODING 162
SWIDTH 574 0
DWIDTH 7 0
BBX 6 8 0 -1
BITMAP
04
38
4C
D0
D0
E8
70
80
ENDCHAR
STARTCHAR sterling
ENCODING 163
SWIDTH 574 0
DWIDTH 9 0
BBX 8 9 0 0
BITMAP
07
09
18
18
7E
18
71
BF
DE
ENDCHAR
STARTCHAR currency
ENCODING 164
SWIDTH 574 0
DWIDTH 8 0
BBX 7 7 0 1
BITMAP
BA
6C
C6
C6
C6
6C
BA
ENDCHAR
STARTCHAR yen
ENCODING 165
SWIDTH 574 0
DWIDTH 10 0
BBX 9 9 1 0
BITMAP
F780
6300
6600
3400
7E00
1800
7C00
3000
7800
ENDCHAR
STARTCHAR brokenbar
ENCODING 166
SWIDTH 606 0
DWIDTH 8 0
BBX 1 9 3 0
BITMAP
80
80
80
00
00
80
80
80
80
ENDCHAR
STARTCHAR section
ENCODING 167
SWIDTH 500 0
DWIDTH 6 0
BBX 5 11 0 -2
BITMAP
38
48
60
30
58
88
D0
60
30
90
E0
ENDCHAR
STARTCHAR dieresis
ENCODING 168
SWIDTH 333 0
DWIDTH 4 0
BBX 3 2 0 7
BITMAP
A0
A0
ENDCHAR
STARTCHAR copyright
ENCODING 169
SWIDTH 747 0
DWIDTH 10 0
BBX 9 9 0 0
BITMAP
3E00
4100
9C80
A480
A080
A280
9C80
4100
3E00
ENDCHAR
STARTCHAR ordfeminine
ENCODING 170
SWIDTH 412 0
DWIDTH 6 0
BBX 5 7 0 2
BITMAP
68
D8
90
B0
D8
00
F8
ENDCHAR
STARTCHAR guillemotleft
ENCODING 171
SWIDTH 481 0
DWIDTH 9 0
BBX 8 6 0 0
BITMAP
11
33
66
CC
66
22
ENDCHAR
STARTCHAR logicalnot
ENCODING 172
SWIDTH 606 0
DWIDTH 7 0
BBX 6 4 0 1
BITMAP
FC
04
04
04
ENDCHAR
STARTCHAR hyphen
ENCODING 173
SWIDTH 333 0
DWIDTH 4 0
BBX 3 2 0 2
BITMAP
E0
E0
ENDCHAR
STARTCHAR registered
ENCODING 174
SWIDTH 747 0
DWIDTH 10 0
BBX 9 9 0 0
BITMAP
3E00
4100
BC80
9480
9880
9480
B680
4100
3E00
ENDCHAR
STARTCHAR macron
ENCODING 175
SWIDTH 333 0
DWIDTH 5 0
BBX 4 1 0 7
BITMAP
F0
ENDCHAR
STARTCHAR degree
ENCODING 176
SWIDTH 400 0
DWIDTH 5 0
BBX 4 4 0 5
BITMAP
60
90
90
60
ENDCHAR
STARTCHAR plusminus
ENCODING 177
SWIDTH 606 0
DWIDTH 8 0
BBX 7 7 0 0
BITMAP
10
10
FE
10
10
00
FE
ENDCHAR
STARTCHAR twosuperior
ENCODING 178
SWIDTH 344 0
DWIDTH 4 0
BBX 4 5 0 4
BITMAP
60
B0
20
40
F0
ENDCHAR
STARTCHAR threesuperior
ENCODING 179
SWIDTH 344 0
DWIDTH 4 0
BBX 4 5 0 4
BITMAP
70
90
20
90
E0
ENDCHAR
STARTCHAR acute
ENCODING 180
SWIDTH 333 0
DWIDTH 4 0
BBX 3 2 0 7
BITMAP
60
C0
ENDCHAR
STARTCHAR mu
ENCODING 181
SWIDTH 576 0
DWIDTH 8 0
BBX 9 9 -1 -3
BITMAP
7300
3300
3300
6600
6E80
7700
4000
C000
C000
ENDCHAR
STARTCHAR paragraph
ENCODING 182
SWIDTH 650 0
DWIDTH 8 0
BBX 7 9 0 0
BITMAP
7E
D4
D4
D4
74
28
28
28
7C
ENDCHAR
STARTCHAR periodcentered
ENCODING 183
SWIDTH 287 0
DWIDTH 5 0
BBX 2 2 1 3
BITMAP
C0
C0
ENDCHAR
STARTCHAR cedilla
ENCODING 184
SWIDTH 333 0
DWIDTH 4 0
BBX 2 3 1 -3
BITMAP
80
40
C0
ENDCHAR
STARTCHAR onesuperior
ENCODING 185
SWIDTH 344 0
DWIDTH 4 0
BBX 3 5 0 4
BITMAP
20
E0
40
40
E0
ENDCHAR
STARTCHAR ordmasculine
ENCODING 186
SWIDTH 356 0
DWIDTH 5 0
BBX 4 7 0 2
BITMAP
60
D0
90
B0
60
00
F0
ENDCHAR
STARTCHAR guillemotright
ENCODING 187
SWIDTH 481 0
DWIDTH 9 0
BBX 8 6 0 0
BITMAP
44
66
33
66
CC
88
ENDCHAR
STARTCHAR onequarter
ENCODING 188
SWIDTH 861 0
DWIDTH 10 0
BBX 9 9 0 0
BITMAP
2200
E400
4400
4800
E900
1300
1500
2F80
2200
ENDCHAR
STARTCHAR onehalf
ENCODING 189
SWIDTH 861 0
DWIDTH 10 0
BBX 9 9 0 0
BITMAP
2200
E400
4400
4800
EB00
1580
1100
2200
2780
ENDCHAR
STARTCHAR threequarters
ENCODING 190
SWIDTH 861 0
DWIDTH 10 0
BBX 9 9 0 0
BITMAP
7200
9400
2400
9800
E900
1300
1500
2F80
2200
ENDCHAR
STARTCHAR questiondown
ENCODING 191
SWIDTH 481 0
DWIDTH 6 0
BBX 5 9 0 -3
BITMAP
18
18
00
30
10
60
C0
C8
70
ENDCHAR
STARTCHAR Agrave
ENCODING 192
SWIDTH 741 0
DWIDTH 10 0
BBX 10 12 -1 0
BITMAP
1C00
0600
0000
0600
0600
0E00
0B00
1300
1F00
2180
6180
F3C0
ENDCHAR
STARTCHAR Aacute
ENCODING 193
SWIDTH 741 0
DWIDTH 10 0
BBX 10 12 -1 0
BITMAP
0380
0600
0000
0600
0600
0E00
0B00
1300
1F00
2180
6180
F3C0
ENDCHAR
STARTCHAR Acircumflex
ENCODING 194
SWIDTH 741 0
DWIDTH 10 0
BBX 10 12 -1 0
BITMAP
0700
0D80
0000
0600
0600
0E00
0B00
1300
1F00
2180
6180
F3C0
ENDCHAR
STARTCHAR Atilde
ENCODING 195
SWIDTH 741 0
DWIDTH 10 0
BBX 10 12 -1 0
BITMAP
0E40
1380
0000
0600
0600
0E00
0B00
1300
1F00
2180
6180
F3C0
ENDCHAR
STARTCHAR Adieresis
ENCODING 196
SWIDTH 741 0
DWIDTH 10 0
BBX 10 12 -1 0
BITMAP
0880
0880
0000
0600
0600
0E00
0B00
1300
1F00
2180
6180
F3C0
ENDCHAR
STARTCHAR Aring
ENCODING 197
SWIDTH 741 0
DWIDTH 10 0
BBX 10 12 -1 0
BITMAP
0700
0D80
0700
0600
0600
0E00
0B00
1300
1F00
2180
6180
F3C0
ENDCHAR
STARTCHAR AE
ENCODING 198
SWIDTH 889 0
DWIDTH 12 0
BBX 12 9 -1 0
BITMAP
1FF0
0B10
1310
1340
27C0
3E40
4610
4610
EFF0
ENDCHAR
STARTCHAR Ccedilla
ENCODING 199
SWIDTH 759 0
DWIDTH 9 0
BBX 8 12 0 -3
BITMAP
1D
63
61
C0
C0
C0
C1
63
3C
20
10
30
ENDCHAR
STARTCHAR Egrave
ENCODING 200
SWIDTH 741 0
DWIDTH 9 0
BBX 8 12 0 0
BITMAP
38
0C
00
7F
31
31
34
7C
64
62
62
FE
ENDCHAR
STARTCHAR Eacute
ENCODING 201
SWIDTH 741 0
DWIDTH 9 0
BBX 8 12 0 0
BITMAP
0E
18
00
7F
31
31
34
7C
64
62
62
FE
ENDCHAR
STARTCHAR Ecircumflex
ENCODING 202
SWIDTH 741 0
DWIDTH 9 0
BBX 8 12 0 0
BITMAP
0E
1B
00
7F
31
31
34
7C
64
62
62
FE
ENDCHAR
STARTCHAR Edieresis
ENCODING 203
SWIDTH 741 0
DWIDTH 9 0
BBX 8 12 0 0
BITMAP
12
12
00
7F
31
31
34
7C
64
62
62
FE
ENDCHAR
STARTCHAR Igrave
ENCODING 204
SWIDTH 444 0
DWIDTH 6 0
BBX 5 12 0 0
BITMAP
70
18
00
78
30
30
30
60
60
60
60
F0
ENDCHAR
STARTCHAR Iacute
ENCODING 205
SWIDTH 444 0
DWIDTH 6 0
BBX 6 12 0 0
BITMAP
1C
30
00
78
30
30
30
60
60
60
60
F0
ENDCHAR
STARTCHAR Icircumflex
ENCODING 206
SWIDTH 444 0
DWIDTH 6 0
BBX 6 12 0 0
BITMAP
38
6C
00
78
30
30
30
60
60
60
60
F0
ENDCHAR
STARTCHAR Idieresis
ENCODING 207
SWIDTH 444 0
DWIDTH 6 0
BBX 5 12 0 0
BITMAP
48
48
00
78
30
30
30
60
60
60
60
F0
ENDCHAR
STARTCHAR Eth
ENCODING 208
SWIDTH 833 0
DWIDTH 10 0
BBX 9 9 0 0
BITMAP
7E00
3100
3180
3180
F980
6180
6300
6300
FC00
ENDCHAR
STARTCHAR Ntilde
ENCODING 209
SWIDTH 852 0
DWIDTH 11 0
BBX 10 12 0 0
BITMAP
1C80
2700
0000
71C0
3080
3880
3880
6D00
4D00
4700
4700
E300
ENDCHAR
STARTCHAR Ograve
ENCODING 210
SWIDTH 833 0
DWIDTH 10 0
BBX 9 12 0 0
BITMAP
3800
0C00
0000
1E00
6300
6180
C180
C180
C180
C300
6300
3C00
ENDCHAR
STARTCHAR Oacute
ENCODING 211
SWIDTH 833 0
DWIDTH 10 0
BBX 9 12 0 0
BITMAP
0700
0C00
0000
1E00
6300
6180
C180
C180
C180
C300
6300
3C00
ENDCHAR
STARTCHAR Ocircumflex
ENCODING 212
SWIDTH 833 0
DWIDTH 10 0
BBX 9 12 0 0
BITMAP
0E00
1B00
0000
1E00
6300
6180
C180
C180
C180
C300
6300
3C00
ENDCHAR
STARTCHAR Otilde
ENCODING 213
SWIDTH 833 0
DWIDTH 10 0
BBX 9 12 0 0
BITMAP
1C80
2700
0000
1E00
6300
6180
C180
C180
C180
C300
6300
3C00
ENDCHAR
STARTCHAR Odieresis
ENCODING 214
SWIDTH 833 0
DWIDTH 10 0
BBX 9 12 0 0
BITMAP
1100
1100
0000
1E00
6300
6180
C180
C180
C180
C300
6300
3C00
ENDCHAR
STARTCHAR multiply
ENCODING 215
SWIDTH 606 0
DWIDTH 8 0
BBX 8 7 0 0
BITMAP
C3
66
3C
18
3C
66
C3
ENDCHAR
STARTCHAR Oslash
ENCODING 216
SWIDTH 833 0
DWIDTH 10 0
BBX 9 9 0 0
BITMAP
1E80
6300
6380
C580
C980
D180
E300
6300
BC00
ENDCHAR
STARTCHAR Ugrave
ENCODING 217
SWIDTH 833 0
DWIDTH 9 0
BBX 9 12 0 0
BITMAP
3800
0C00
0000
F380
6100
6100
6100
C200
C200
C200
E600
7C00
ENDCHAR
STARTCHAR Uacute
ENCODING 218
SWIDTH 833 0
DWIDTH 9 0
BBX 9 12 0 0
BITMAP
0700
0C00
0000
F380
6100
6100
6100
C200
C200
C200
E600
7C00
ENDCHAR
STARTCHAR Ucircumflex
ENCODING 219
SWIDTH 833 0
DWIDTH 9 0
BBX 9 12 0 0
BITMAP
0E00
1B00
0000
F380
6100
6100
6100
C200
C200
C200
E600
7C00
ENDCHAR
STARTCHAR Udieresis
ENCODING 220
SWIDTH 833 0
DWIDTH 9 0
BBX 9 12 0 0
BITMAP
1200
1200
0000
F380
6100
6100
6100
C200
C200
C200
E600
7C00
ENDCHAR
STARTCHAR Yacute
ENCODING 221
SWIDTH 704 0
DWIDTH 9 0
BBX 9 12 0 0
BITMAP
0700
0C00
0000
F780
6300
6600
3400
3800
1800
3000
3000
7800
ENDCHAR
STARTCHAR Thorn
ENCODING 222
SWIDTH 741 0
DWIDTH 9 0
BBX 9 9 0 0
BITMAP
7800
3000
3F00
3180
3180
6300
7C00
6000
F000
ENDCHAR
STARTCHAR germandbls
ENCODING 223
SWIDTH 574 0
DWIDTH 9 0
BBX 8 11 0 -2
BITMAP
0E
33
33
32
6C
66
66
C6
D8
C0
C0
ENDCHAR
STARTCHAR agrave
ENCODING 224
SWIDTH 667 0
DWIDTH 8 0
BBX 8 9 0 0
BITMAP
30
18
00
36
4E
C6
CC
DD
6E
ENDCHAR
STARTCHAR aacute
ENCODING 225
SWIDTH 667 0
DWIDTH 8 0
BBX 8 9 0 0
BITMAP
0C
18
00
36
4E
C6
CC
DD
6E
ENDCHAR
STARTCHAR acircumflex
ENCODING 226
SWIDTH 667 0
DWIDTH 8 0
BBX 8 10 0 0
BITMAP
10
38
6C
00
36
4E
C6
CC
DD
6E
ENDCHAR
STARTCHAR atilde
ENCODING 227
SWIDTH 667 0
DWIDTH 8 0
BBX 8 9 0 0
BITMAP
1A
2C
00
36
4E
C6
CC
DD
6E
ENDCHAR
STARTCHAR adieresis
ENCODING 228
SWIDTH 667 0
DWIDTH 8 0
BBX 8 9 0 0
BITMAP
14
14
00
36
4E
C6
CC
DD
6E
ENDCHAR
STARTCHAR aring
ENCODING 229
SWIDTH 667 0
DWIDTH 8 0
BBX 8 10 0 0
BITMAP
18
24
18
00
36
4E
C6
CC
DD
6E
ENDCHAR
STARTCHAR ae
ENCODING 230
SWIDTH 815 0
DWIDTH 11 0
BBX 10 6 0 0
BITMAP
7B80
4CC0
3CC0
CF00
DC80
6700
ENDCHAR
STARTCHAR ccedilla
ENCODING 231
SWIDTH 537 0
DWIDTH 6 0
BBX 6 9 0 -3
BITMAP
38
4C
C0
C0
C8
70
40
20
60
ENDCHAR
STARTCHAR egrave
ENCODING 232
SWIDTH 519 0
DWIDTH 7 0
BBX 6 9 0 0
BITMAP
60
30
00
38
4C
CC
F0
C8
70
ENDCHAR
STARTCHAR eacute
ENCODING 233
SWIDTH 519 0
DWIDTH 7 0
BBX 6 9 0 0
BITMAP
18
30
00
38
4C
CC
F0
C8
70
ENDCHAR
STARTCHAR ecircumflex
ENCODING 234
SWIDTH 519 0
DWIDTH 7 0
BBX 6 10 0 0
BITMAP
10
38
6C
00
38
4C
CC
F0
C8
70
ENDCHAR
STARTCHAR edieresis
ENCODING 235
SWIDTH 519 0
DWIDTH 7 0
BBX 6 9 0 0
BITMAP
28
28
00
38
4C
CC
F0
C8
70
ENDCHAR
STARTCHAR igrave
ENCODING 236
SWIDTH 389 0
DWIDTH 4 0
BBX 4 9 0 0
BITMAP
C0
60
00
E0
60
60
C0
D0
E0
ENDCHAR
STARTCHAR iacute
ENCODING 237
SWIDTH 389 0
DWIDTH 4 0
BBX 4 9 0 0
BITMAP
30
60
00
E0
60
60
C0
D0
E0
ENDCHAR
STARTCHAR icircumflex
ENCODING 238
SWIDTH 389 0
DWIDTH 4 0
BBX 5 10 0 0
BITMAP
20
70
D8
00
E0
60
60
C0
D0
E0
ENDCHAR
STARTCHAR idieresis
ENCODING 239
SWIDTH 389 0
DWIDTH 4 0
BBX 4 9 0 0
BITMAP
50
50
00
E0
60
60
C0
D0
E0
ENDCHAR
STARTCHAR eth
ENCODING 240
SWIDTH 574 0
DWIDTH 7 0
BBX 6 9 0 0
BITMAP
60
3C
48
38
4C
CC
CC
C8
70
ENDCHAR
STARTCHAR ntilde
ENCODING 241
SWIDTH 685 0
DWIDTH 8 0
BBX 8 9 0 0
BITMAP
1A
2C
00
EC
76
66
CC
CD
CE
ENDCHAR
STARTCHAR ograve
ENCODING 242
SWIDTH 574 0
DWIDTH 7 0
BBX 6 9 0 0
BITMAP
60
30
00
38
4C
CC
CC
C8
70
ENDCHAR
STARTCHAR oacute
ENCODING 243
SWIDTH 574 0
DWIDTH 7 0
BBX 6 9 0 0
BITMAP
18
30
00
38
4C
CC
CC
C8
70
ENDCHAR
STARTCHAR ocircumflex
ENCODING 244
SWIDTH 574 0
DWIDTH 7 0
BBX 6 10 0 0
BITMAP
10
38
6C
00
38
4C
CC
CC
C8
70
ENDCHAR
STARTCHAR otilde
ENCODING 245
SWIDTH 574 0
DWIDTH 7 0
BBX 6 9 0 0
BITMAP
34
58
00
38
4C
CC
CC
C8
70
ENDCHAR
STARTCHAR odieresis
ENCODING 246
SWIDTH 574 0
DWIDTH 7 0
BBX 6 9 0 0
BITMAP
28
28
00
38
4C
CC
CC
C8
70
ENDCHAR
STARTCHAR divide
ENCODING 247
SWIDTH 606 0
DWIDTH 8 0
BBX 7 7 0 0
BITMAP
10
10
00
FE
00
10
10
ENDCHAR
STARTCHAR oslash
ENCODING 248
SWIDTH 574 0
DWIDTH 7 0
BBX 8 6 -1 0
BITMAP
1D
26
6E
76
64
B8
ENDCHAR
STARTCHAR ugrave
ENCODING 249
SWIDTH 685 0
DWIDTH 8 0
BBX 8 9 0 0
BITMAP
30
18
00
E6
66
66
CC
DD
6E
ENDCHAR
STARTCHAR uacute
ENCODING 250
SWIDTH 685 0
DWIDTH 8 0
BBX 8 9 0 0
BITMAP
0C
18
00
E6
66
66
CC
DD
6E
ENDCHAR
STARTCHAR ucircumflex
ENCODING 251
SWIDTH 685 0
DWIDTH 8 0
BBX 8 10 0 0
BITMAP
10
38
6C
00
E6
66
66
CC
DD
6E
ENDCHAR
STARTCHAR udieresis
ENCODING 252
SWIDTH 685 0
DWIDTH 8 0
BBX 8 9 0 0
BITMAP
14
14
00
E6
66
66
CC
DD
6E
ENDCHAR
STARTCHAR yacute
ENCODING 253
SWIDTH 519 0
DWIDTH 6 0
BBX 7 12 -1 -3
BITMAP
0C
18
00
66
62
34
34
18
18
10
E0
C0
ENDCHAR
STARTCHAR thorn
ENCODING 254
SWIDTH 648 0
DWIDTH 8 0
BBX 9 12 -2 -3
BITMAP
1C00
0C00
0800
1B00
1D80
1980
3180
3300
3E00
6000
6000
F000
ENDCHAR
STARTCHAR ydieresis
ENCODING 255
SWIDTH 519 0
DWIDTH 6 0
BBX 7 12 -1 -3
BITMAP
14
14
00
66
62
34
34
18
18
10
E0
C0
ENDCHAR
ENDFONT
